<?xml version="1.0" encoding="utf-8"?>
<!-- Generator: Adobe Illustrator 15.0.0, SVG Export Plug-In . SVG Version: 6.00 Build 0)  -->
<!DOCTYPE svg PUBLIC "-//W3C//DTD SVG 1.1//EN" "http://www.w3.org/Graphics/SVG/1.1/DTD/svg11.dtd">
<svg version="1.1" id="Layer_1" xmlns="http://www.w3.org/2000/svg" xmlns:xlink="http://www.w3.org/1999/xlink" x="0px" y="0px"
	 width="120px" height="40px" viewBox="0 0 120 40" enable-background="new 0 0 120 40" xml:space="preserve">
<path fill="#C3C2B9" d="M73,17h-6c-3.9,0-7-3.1-7-7s3.1-7,7-7h6c3.9,0,7,3.1,7,7S76.9,17,73,17z M73,5h-6c-2.8,0-5,2.2-5,5
	s2.2,5,5,5h6c2.8,0,5-2.2,5-5S75.8,5,73,5z M67,13c-1.7,0-3-1.3-3-3s1.3-3,3-3s3,1.3,3,3S68.7,13,67,13z"/>
<path fill="#C3C2B9" d="M93,17h-6c-3.9,0-7-3.1-7-7s3.1-7,7-7h6c3.9,0,7,3.1,7,7S96.9,17,93,17z M93,5h-6c-2.8,0-5,2.2-5,5
	s2.2,5,5,5h6c2.8,0,5-2.2,5-5S95.8,5,93,5z M87,13c-1.7,0-3-1.3-3-3s1.3-3,3-3s3,1.3,3,3S88.7,13,87,13z"/>
<path fill="#C3C2B9" d="M53,17h-6c-3.9,0-7-3.1-7-7s3.1-7,7-7h6c3.9,0,7,3.1,7,7S56.9,17,53,17z M53,5h-6c-2.8,0-5,2.2-5,5
	s2.2,5,5,5h6c2.8,0,5-2.2,5-5S55.8,5,53,5z M47,13c-1.7,0-3-1.3-3-3s1.3-3,3-3s3,1.3,3,3S48.7,13,47,13z"/>
<path fill="#C3C2B9" d="M33,17h-6c-3.9,0-7-3.1-7-7s3.1-7,7-7h6c3.9,0,7,3.1,7,7S36.9,17,33,17z M33,5h-6c-2.8,0-5,2.2-5,5
	s2.2,5,5,5h6c2.8,0,5-2.2,5-5S35.8,5,33,5z M27,13c-1.7,0-3-1.3-3-3s1.3-3,3-3s3,1.3,3,3S28.7,13,27,13z"/>
<path fill="#C3C2B9" d="M13,17H7c-3.9,0-7-3.1-7-7s3.1-7,7-7h6c3.9,0,7,3.1,7,7S16.9,17,13,17z M13,5H7c-2.8,0-5,2.2-5,5s2.2,5,5,5
	h6c2.8,0,5-2.2,5-5S15.8,5,13,5z M7,13c-1.7,0-3-1.3-3-3s1.3-3,3-3s3,1.3,3,3S8.7,13,7,13z"/>
<path fill="#F05451" d="M93,37h-6c-3.9,0-7-3.1-7-7s3.1-7,7-7h6c3.9,0,7,3.1,7,7S96.9,37,93,37z M93,25h-6c-2.8,0-5,2.2-5,5
	s2.2,5,5,5h6c2.8,0,5-2.2,5-5S95.8,25,93,25z M87,33c-1.7,0-3-1.3-3-3s1.3-3,3-3s3,1.3,3,3S88.7,33,87,33z"/>
<path fill="#C3C2B9" d="M113,17h-6c-3.9,0-7-3.1-7-7s3.1-7,7-7h6c3.9,0,7,3.1,7,7S116.9,17,113,17z M113,5h-6c-2.8,0-5,2.2-5,5
	s2.2,5,5,5h6c2.8,0,5-2.2,5-5S115.8,5,113,5z M107,13c-1.7,0-3-1.3-3-3s1.3-3,3-3s3,1.3,3,3S108.7,13,107,13z"/>
<path fill="#F05451" d="M113,37h-6c-3.9,0-7-3.1-7-7s3.1-7,7-7h6c3.9,0,7,3.1,7,7S116.9,37,113,37z M113,25h-6c-2.8,0-5,2.2-5,5
	s2.2,5,5,5h6c2.8,0,5-2.2,5-5S115.8,25,113,25z M107,33c-1.7,0-3-1.3-3-3s1.3-3,3-3s3,1.3,3,3S108.7,33,107,33z"/>
<path fill="#F05451" d="M73,37h-6c-3.9,0-7-3.1-7-7s3.1-7,7-7h6c3.9,0,7,3.1,7,7S76.9,37,73,37z M73,25h-6c-2.8,0-5,2.2-5,5
	s2.2,5,5,5h6c2.8,0,5-2.2,5-5S75.8,25,73,25z M67,33c-1.7,0-3-1.3-3-3s1.3-3,3-3s3,1.3,3,3S68.7,33,67,33z"/>
<path fill="#F05451" d="M53,37h-6c-3.9,0-7-3.1-7-7s3.1-7,7-7h6c3.9,0,7,3.1,7,7S56.9,37,53,37z M53,25h-6c-2.8,0-5,2.2-5,5
	s2.2,5,5,5h6c2.8,0,5-2.2,5-5S55.8,25,53,25z M47,33c-1.7,0-3-1.3-3-3s1.3-3,3-3s3,1.3,3,3S48.7,33,47,33z"/>
<path fill="#F05451" d="M33,37h-6c-3.9,0-7-3.1-7-7s3.1-7,7-7h6c3.9,0,7,3.1,7,7S36.9,37,33,37z M33,25h-6c-2.8,0-5,2.2-5,5
	s2.2,5,5,5h6c2.8,0,5-2.2,5-5S35.8,25,33,25z M27,33c-1.7,0-3-1.3-3-3s1.3-3,3-3s3,1.3,3,3S28.7,33,27,33z"/>
<path fill="#F05451" d="M13,37H7c-3.9,0-7-3.1-7-7s3.1-7,7-7h6c3.9,0,7,3.1,7,7S16.9,37,13,37z M13,25H7c-2.8,0-5,2.2-5,5s2.2,5,5,5
	h6c2.8,0,5-2.2,5-5S15.8,25,13,25z M7,33c-1.7,0-3-1.3-3-3s1.3-3,3-3s3,1.3,3,3S8.7,33,7,33z"/>
</svg>
